<svg width="424" height="33" viewBox="0 0 424 33" fill="none" xmlns="http://www.w3.org/2000/svg">
<path d="M246.019 16.4551C241.299 21.7056 236.419 27.146 231.759 32.3294C226.989 26.9337 222.019 21.3146 217.199 15.8631C221.699 10.8472 226.649 5.32864 231.359 0.078186C236.129 5.40684 241.059 10.9142 246.029 16.4551H246.019ZM231.499 5.09407C228.249 8.75821 224.819 12.6123 221.619 16.2205C224.799 19.7953 228.229 23.6494 231.479 27.3024C234.729 23.627 238.149 19.7618 241.369 16.1312C238.219 12.6011 234.779 8.75821 231.499 5.09407Z" fill="#D6A428"/>
<path d="M97.4895 32.4075C92.7095 27.0677 87.7595 21.538 82.9795 16.1982C87.7395 10.8807 92.6995 5.35099 97.4995 0C102.289 5.33982 107.239 10.8584 112.069 16.254C107.259 21.5939 102.289 27.1012 97.4995 32.4187L97.4895 32.4075ZM97.4395 27.5481C100.899 23.6829 104.259 19.907 107.419 16.3658C104.099 12.6681 100.659 8.83639 97.5495 5.37333C94.3195 8.98162 90.8995 12.8022 87.6395 16.444C90.7495 19.9741 94.0895 23.7611 97.4295 27.5593L97.4395 27.5481Z" fill="#D6A428"/>
<path d="M33.2895 29.9825C31.4995 29.9825 30.0695 29.9825 28.4395 29.9825C28.4395 20.7775 28.4395 11.7511 28.4395 2.49023C30.0895 2.49023 31.5895 2.49023 33.2895 2.49023C33.2895 11.6506 33.2895 20.6881 33.2895 29.9825Z" fill="#1B8354"/>
<path d="M167.369 29.9942C165.689 29.9942 164.259 29.9942 162.619 29.9942C162.619 20.8115 162.619 11.774 162.619 2.50195C164.219 2.50195 165.709 2.50195 167.369 2.50195C167.369 11.6511 167.369 20.5992 167.369 29.9942Z" fill="#1B8354"/>
<path d="M74.2192 15.9077C78.4492 11.1712 82.9292 6.13295 87.5892 0.916016C88.0992 1.39638 88.7392 1.99965 89.7392 2.93803C85.7792 7.39533 81.9492 11.6962 77.9392 16.2094C81.8892 20.6443 85.6592 24.8782 89.5792 29.2796C88.8592 30.1845 88.3092 30.8883 87.9992 31.2793C83.3492 26.0847 78.7892 21.0018 74.2192 15.9077Z" fill="#D6A428"/>
<path d="M120.709 16.5789C116.559 21.2261 112.069 26.2419 107.349 31.5147C106.839 31.0232 106.139 30.3529 105.209 29.4481C109.149 25.0131 112.909 20.7792 116.969 16.2102C113.059 11.8199 109.239 7.53023 105.289 3.09527C106.029 2.22392 106.619 1.54248 106.929 1.17383C111.569 6.36842 116.119 11.4401 120.709 16.5789Z" fill="#D6A428"/>
<path d="M211.589 16.5668C215.809 20.9236 219.729 24.9675 223.799 29.1679C222.939 30.2515 222.379 30.9441 222.069 31.3463C217.359 26.0735 212.749 20.9124 208.329 15.9636C212.419 11.3946 216.959 6.3117 221.679 1.03891C222.059 1.39639 222.709 1.99963 223.719 2.92684C219.779 7.36179 215.969 11.6515 211.589 16.5668Z" fill="#D6A428"/>
<path d="M238.949 3.42987C240.049 2.13401 240.579 1.51962 241.409 0.525391C246.099 5.74233 250.719 10.8699 255.149 15.7852C250.399 21.0915 245.859 26.1744 241.149 31.436C240.719 30.9892 240.109 30.3524 239.189 29.3917C243.129 24.9679 246.949 20.6782 251.129 15.9974C247.039 11.7747 243.119 7.73079 238.949 3.41872V3.42987Z" fill="#D6A428"/>
<path d="M134.199 8.66933V3.31836C135.839 3.31836 137.409 3.31836 139.169 3.31836C139.169 5.11692 139.169 6.77023 139.169 8.66933C137.539 8.66933 136.049 8.66933 134.199 8.66933Z" fill="#1B8354"/>
<path d="M62.1291 3.25C62.1291 5.16027 62.1291 6.73538 62.1291 8.60097C60.5491 8.60097 59.0691 8.60097 57.2891 8.60097C57.2891 6.96998 57.2891 5.2273 57.2891 3.25C58.8091 3.25 60.2991 3.25 62.1291 3.25Z" fill="#1B8354"/>
<path d="M0.299316 3.2168C1.81932 3.2168 3.21932 3.2168 4.89932 3.2168C4.89932 4.98184 4.89932 6.72454 4.89932 8.69066H0.299316C0.299316 7.01499 0.299316 5.36166 0.299316 3.2168Z" fill="#1B8354"/>
<path d="M139.179 23.8066C139.179 25.5605 139.179 27.1357 139.179 29.0459C137.659 29.0459 136.099 29.0459 134.299 29.0459C134.299 27.4261 134.299 25.7504 134.299 23.8066C135.789 23.8066 137.279 23.8066 139.179 23.8066Z" fill="#1B8354"/>
<path d="M62.1095 23.8496C62.1095 25.7375 62.1095 27.3015 62.1095 29.1336C60.4995 29.1336 59.0095 29.1336 57.2495 29.1336C57.2495 27.4467 57.2495 25.704 57.2495 23.8496C58.9295 23.8496 60.4895 23.8496 62.1095 23.8496Z" fill="#1B8354"/>
<path d="M0.279297 23.7168C1.8593 23.7168 3.2593 23.7168 4.9193 23.7168C4.9193 25.4595 4.9193 27.124 4.9193 29.1013C3.5093 29.1013 2.0293 29.1013 0.279297 29.1013C0.279297 27.515 0.279297 25.8393 0.279297 23.7168Z" fill="#1B8354"/>
<path d="M181.439 18.8242C183.129 18.8242 184.609 18.8242 186.269 18.8242C186.269 20.6116 186.269 22.1421 186.269 23.9183C184.649 23.9183 183.159 23.9183 181.439 23.9183C181.439 22.3432 181.439 20.8015 181.439 18.8242Z" fill="#1B8354"/>
<path d="M148.719 23.9506C147.129 23.9506 145.629 23.9506 143.929 23.9506C143.929 22.2638 143.929 20.7221 143.929 18.8789C145.489 18.8789 146.979 18.8789 148.719 18.8789C148.719 20.4652 148.719 22.1074 148.719 23.9506Z" fill="#1B8354"/>
<path d="M196.009 23.8398C196.009 25.7054 196.009 27.2805 196.009 29.1238C194.439 29.1238 192.969 29.1238 191.229 29.1238C191.229 27.4481 191.229 25.7948 191.229 23.8398C192.709 23.8398 194.169 23.8398 196.009 23.8398Z" fill="#1B8354"/>
<path d="M177.429 13.5625C177.429 15.5398 177.429 17.0926 177.429 18.8688C175.759 18.8688 174.279 18.8688 172.579 18.8688C172.579 17.1038 172.579 15.4504 172.579 13.5625C174.189 13.5625 175.679 13.5625 177.429 13.5625Z" fill="#1B8354"/>
<path d="M134.27 13.5625C135.98 13.5625 137.46 13.5625 139.14 13.5625C139.14 15.3275 139.14 16.8692 139.14 18.7683C137.56 18.7683 136.01 18.7683 134.27 18.7683C134.27 17.1149 134.27 15.5621 134.27 13.5625Z" fill="#1B8354"/>
<path d="M62.0592 18.8562C60.2892 18.8562 58.8092 18.8562 57.1592 18.8562C57.1592 17.0576 57.1592 15.516 57.1592 13.6504C58.7892 13.6504 60.3292 13.6504 62.0592 13.6504V18.8562Z" fill="#1B8354"/>
<path d="M38.4893 13.506H43.1993C43.1993 15.2933 43.1993 16.9467 43.1993 18.857C41.6193 18.857 40.1493 18.857 38.4893 18.857C38.4893 17.0807 38.4893 15.5391 38.4893 13.506Z" fill="#1B8354"/>
<path d="M23.7095 18.9584C22.0495 18.9584 20.6495 18.9584 18.9795 18.9584C18.9795 17.1822 18.9795 15.5512 18.9795 13.6074C20.4895 13.6074 21.9695 13.6074 23.7095 13.6074C23.7095 15.339 23.7095 17.0705 23.7095 18.9584Z" fill="#1B8354"/>
<path d="M4.96906 13.5957C4.96906 15.3049 4.96906 16.8577 4.96906 18.8573C3.49906 18.9355 2.02906 19.0026 0.289062 19.0919V13.5957C1.82906 13.5957 3.29906 13.5957 4.96906 13.5957Z" fill="#1B8354"/>
<path d="M186.319 8.47852C186.319 10.3441 186.319 11.7964 186.319 13.5502C184.709 13.5502 183.229 13.5502 181.479 13.5502C181.479 11.9416 181.479 10.3218 181.479 8.47852H186.319Z" fill="#1B8354"/>
<path d="M148.749 13.617C147.069 13.617 145.579 13.617 143.909 13.617C143.909 11.8296 143.909 10.2879 143.909 8.51172H148.749V13.617Z" fill="#1B8354"/>
<path d="M195.959 3.24023C195.959 5.11699 195.959 6.77033 195.959 8.65826C194.389 8.65826 193.009 8.65826 191.209 8.65826C191.139 6.9379 191.069 5.20636 190.989 3.24023C192.829 3.24023 194.309 3.24023 195.959 3.24023Z" fill="#1B8354"/>
<path d="M47.5293 18.7793C49.1993 18.7793 50.5893 18.7793 52.2193 18.7793V23.8733C50.7293 23.8733 49.2493 23.8733 47.5293 23.8733C47.5293 22.2759 47.5293 20.7343 47.5293 18.7793Z" fill="#1B8354"/>
<path d="M14.5993 23.9504H10.0493C10.0493 22.1965 10.0493 20.6437 10.0493 18.834C11.5593 18.834 12.9393 18.834 14.5993 18.834C14.5993 20.4538 14.5993 22.0066 14.5993 23.9504Z" fill="#1B8354"/>
<path d="M195.929 18.8914C194.309 18.8914 192.929 18.8914 191.259 18.8914C191.259 17.1599 191.259 15.5289 191.259 13.6074C192.779 13.6074 194.239 13.6074 195.929 13.6074C195.929 15.3166 195.929 16.8582 195.929 18.8914Z" fill="#1B8354"/>
<path d="M157.66 18.9025C156.03 18.9025 154.639 18.9025 152.979 18.9025C152.979 17.1598 152.979 15.5177 152.979 13.6074C154.519 13.6074 155.98 13.6074 157.66 13.6074C157.66 15.3278 157.66 16.8806 157.66 18.9025Z" fill="#1B8354"/>
<path d="M379.699 16.444C375.129 21.5269 370.179 27.0454 365.329 32.4411C360.659 27.2241 355.769 21.7838 351.189 16.6674C355.999 11.2941 360.919 5.79783 365.549 0.636749C369.939 5.54089 374.869 11.0483 379.709 16.444H379.699ZM365.709 5.03819C362.339 8.81405 358.909 12.6569 355.809 16.12C359.009 19.7171 362.419 23.56 365.429 26.9561C368.659 23.3701 372.079 19.5607 375.329 15.9524C372.209 12.4224 368.869 8.62414 365.699 5.03819H365.709Z" fill="#D6A428"/>
<path d="M296.549 29.8934C296.549 20.6772 296.549 11.7402 296.549 2.53519H301.149C301.149 11.5503 301.149 20.599 301.149 29.8934H296.549Z" fill="#1B8354"/>
<path d="M385.389 15.8078C381.119 11.2946 377.249 7.1948 373.059 2.74867C373.919 1.94435 374.569 1.3411 375.009 0.927765C379.759 6.2229 384.309 11.3058 388.549 16.0424C384.269 20.846 379.739 25.9177 374.959 31.2687C374.789 31.1123 374.099 30.442 373.209 29.5707C377.209 25.0463 381.029 20.7231 385.389 15.8078Z" fill="#D6A428"/>
<path d="M355.919 1.06058C356.249 1.40688 356.809 1.97663 357.709 2.89267C353.819 7.26059 350.009 11.5391 345.869 16.1752C349.689 20.6995 353.629 24.844 357.579 29.413C356.869 30.262 356.249 31.0105 355.819 31.5355C351.109 26.2627 346.569 21.1799 342.229 16.3316C346.519 11.5392 351.069 6.46742 355.919 1.06058Z" fill="#D6A428"/>
<path d="M407.109 3.33987C407.109 5.11609 407.109 6.69124 407.109 8.59034H402.369C402.369 6.99286 402.369 5.32834 402.369 3.33987C403.769 3.33987 405.259 3.33987 407.109 3.33987Z" fill="#1B8354"/>
<path d="M268.059 8.68V3.30667C269.659 3.30667 271.159 3.30667 272.919 3.30667C272.919 4.94883 272.919 6.7027 272.919 8.68C271.359 8.68 269.869 8.68 268.059 8.68Z" fill="#1B8354"/>
<path d="M402.259 29.0778V23.8496C403.769 23.8496 405.239 23.8496 406.989 23.8496C406.989 25.4248 406.989 27.0893 406.989 29.0778C405.599 29.0778 404.119 29.0778 402.259 29.0778Z" fill="#1B8354"/>
<path d="M329.909 29.2456C328.289 29.2456 326.879 29.2456 325.239 29.2456C325.239 27.4583 325.239 25.7826 325.239 23.8164C326.709 23.8164 328.189 23.8164 329.909 23.8164V29.2456Z" fill="#1B8354"/>
<path d="M268.109 29.0339C268.109 27.1013 268.109 25.5373 268.109 23.7499C269.769 23.7499 271.249 23.7499 272.959 23.7499C272.959 25.515 272.959 27.1795 272.959 29.0339H268.109Z" fill="#1B8354"/>
<path d="M325.269 3.20706C326.819 3.20706 328.219 3.20706 329.889 3.20706C329.889 4.90508 329.889 6.56957 329.889 8.56921C328.489 8.56921 327.019 8.56921 325.269 8.56921C325.269 6.99408 325.269 5.32958 325.269 3.20706Z" fill="#1B8354"/>
<path d="M282.869 18.8672C282.869 20.5652 282.869 22.0175 282.869 23.8049H277.989V18.8672C279.599 18.8672 281.149 18.8672 282.869 18.8672Z" fill="#1B8354"/>
<path d="M425.869 13.5723C425.869 15.4937 425.869 17.0354 425.869 18.8451C424.209 18.8451 422.729 18.8451 421.019 18.8451C421.019 17.1359 421.019 15.4826 421.019 13.5723C422.589 13.5723 424.069 13.5723 425.869 13.5723Z" fill="#1B8354"/>
<path d="M402.279 19.1586C402.279 17.0137 402.279 15.4721 402.279 13.6288C403.869 13.6288 405.339 13.6288 407.039 13.6288C407.039 15.2821 407.039 16.8238 407.039 18.8234C405.619 18.9239 404.159 19.0245 402.279 19.1586Z" fill="#1B8354"/>
<path d="M329.929 18.8458C328.299 18.8458 326.829 18.8458 325.179 18.8458C325.179 17.036 325.179 15.4944 325.179 13.6288H329.929C329.929 15.338 329.929 16.9914 329.929 18.8458Z" fill="#1B8354"/>
<path d="M306.439 13.5723H311.259C311.259 15.3373 311.259 16.9907 311.259 18.8786C309.639 18.8786 308.159 18.8786 306.439 18.8786C306.439 17.0912 306.439 15.4602 306.439 13.5723Z" fill="#1B8354"/>
<path d="M286.909 18.7899C286.909 16.9243 286.909 15.3716 286.909 13.5842C288.559 13.5842 290.039 13.5842 291.689 13.5842V18.7899C290.159 18.7899 288.679 18.7899 286.909 18.7899Z" fill="#1B8354"/>
<path d="M273.019 13.2714C273.019 15.338 273.019 16.902 273.019 18.7787C271.429 18.7787 269.879 18.7787 268.129 18.7787C268.129 17.0807 268.129 15.5279 268.129 13.573C269.649 13.4836 271.129 13.3831 273.019 13.2714Z" fill="#1B8354"/>
<path d="M282.909 8.51175C282.909 10.288 282.909 11.7291 282.909 13.5835C281.339 13.684 279.859 13.7845 278.069 13.9074C278.069 12.0083 278.069 10.3885 278.069 8.51175C279.569 8.51175 281.059 8.51175 282.909 8.51175Z" fill="#1B8354"/>
<path d="M416.759 18.8242C416.759 20.6675 416.759 22.1309 416.759 23.8625C415.289 23.8625 413.899 23.8625 412.189 23.8625V18.8242C413.649 18.8242 415.029 18.8242 416.759 18.8242Z" fill="#1B8354"/>
<path d="M315.509 23.9057C315.509 22.163 315.509 20.7107 315.509 18.9121C317.029 18.9121 318.479 18.9121 320.159 18.9121C320.159 20.5766 320.159 22.1183 320.159 23.9057C318.659 23.9057 317.269 23.9057 315.509 23.9057Z" fill="#1B8354"/>
<path d="M412.119 8.4119C413.739 8.4119 415.049 8.4119 416.619 8.4119C416.619 10.1211 416.619 11.7632 416.619 13.6288C415.119 13.6288 413.739 13.6288 412.119 13.6288C412.119 11.8861 412.119 10.3445 412.119 8.4119Z" fill="#1B8354"/>
<path d="M320.079 13.6181C318.569 13.6181 317.189 13.6181 315.589 13.6181C315.589 11.9089 315.589 10.3561 315.589 8.53519C316.999 8.53519 318.389 8.53519 320.079 8.53519V13.6181Z" fill="#1B8354"/>
<path d="M52.1991 13.6392C50.6191 13.6392 49.2291 13.6392 47.5591 13.6392V8.58984C48.9691 8.58984 50.4391 8.58984 52.1991 8.58984C52.1991 10.098 52.1991 11.6284 52.1991 13.6392Z" fill="#1B8354"/>
<path d="M10.1294 8.4668C11.6294 8.4668 13.0194 8.4668 14.6394 8.4668C14.6394 10.176 14.6394 11.7176 14.6394 13.5608C13.1694 13.5608 11.7794 13.5608 10.1294 13.5608C10.1294 12.0416 10.1294 10.4888 10.1294 8.4668Z" fill="#1B8354"/>
</svg>
